<svg xmlns="http://www.w3.org/2000/svg" width="24" height="24" viewBox="0 0 24 24"><g fill="none" stroke="currentColor" stroke-linecap="round" stroke-linejoin="round" stroke-width="1.5"><path d="M7 9h10c1.87 0 2.804 0 3.5.402a3 3 0 0 1 1.098 1.098C22 11.196 22 12.13 22 14s0 2.804-.402 3.5a3 3 0 0 1-1.098 1.098C19.804 19 18.87 19 17 19h-.394c-.687 0-1.03 0-1.351-.071a3 3 0 0 1-1.183-.554c-.26-.202-.48-.465-.92-.993c-.35-.42-.526-.63-.727-.725a1 1 0 0 0-.85 0c-.201.094-.376.304-.727.725c-.44.528-.66.791-.92.993a3 3 0 0 1-1.183.554C8.425 19 8.081 19 7.394 19H7c-1.87 0-2.804 0-3.5-.402A3 3 0 0 1 2.402 17.5C2 16.804 2 15.87 2 14s0-2.804.402-3.5A3 3 0 0 1 3.5 9.402C4.196 9 5.13 9 7 9m-2 3h2"/><path d="M22 13v-1.172c0-1.153 0-1.73-.153-2.268a4 4 0 0 0-.352-.848C21.224 8.224 20.815 7.816 20 7s-1.224-1.224-1.712-1.495a4 4 0 0 0-.848-.352C16.902 5 16.325 5 15.172 5H8.828c-1.153 0-1.73 0-2.268.153a4 4 0 0 0-.848.352C5.224 5.776 4.816 6.185 4 7S2.776 8.224 2.505 8.712a4 4 0 0 0-.352.848C2 10.098 2 10.675 2 11.828V13"/></g></svg>